Coordinates
version=1
nRows=23
nColumns=33
inDegrees=yes

Units are S.I. units (second, meters, Newtons, ...)
Angles are in degrees.

endheader
time	ground_thorax_rot_x	ground_thorax_rot_y	ground_thorax_rot_z	ground_thorax_tx	ground_thorax_ty	ground_thorax_tz	clav_prot_r	clav_elev_r	scapula_abduction_r	scapula_elevation_r	scapula_upward_rot_r	scapula_winging_r	shoulder_elv_r	plane_of_elev_r	axial_rot_r	elbow_flexion_r	pro_sup_r	wrist_flex_r	wrist_dev_r	clav_prot_l	clav_elev_l	scapula_abduction_l	scapula_elevation_l	scapula_upward_rot_l	scapula_winging_l	shoulder_elv_l	plane_of_elev_l	axial_rot_l	elbow_flexion_l	pro_sup_l	wrist_flex_l	wrist_dev_l	
8.8400	-41.140925	-11.311538	10.103530	-197.159703	820.182675	-11.367532	9.760661	-45.000000	32.089059	-45.000000	-45.000000	2422.860976	426.780474	27.330796	92.784605	1453.165017	37.330531	18.401363	7.232445	16.290004	39.078234	-34.797651	-45.000000	-45.000000	801.605554	-2980.871927	142.004430	153.062998	9.457408	37.289063	9.859305	-22.288569	
8.8500	-41.108637	-11.158849	10.165910	-198.033713	820.495933	-11.232518	9.494732	-45.000000	31.936927	-45.000000	-45.000000	2422.799021	426.788570	27.361250	92.746755	1453.200982	37.285657	18.297700	7.181341	16.052913	38.988548	-34.718538	-45.000000	-45.000000	801.599034	-2980.844329	142.150214	152.312226	9.528889	37.338169	9.610672	-22.178008	
8.8600	-41.070699	-11.021335	10.224725	-198.856538	820.794417	-11.091378	9.102504	-45.000000	31.798080	-45.000000	-45.000000	2422.788132	426.815727	27.357144	92.702084	1453.209120	37.231717	18.168705	7.155640	15.706920	38.854798	-34.649166	-45.000000	-45.000000	801.580660	-2980.838600	142.336944	151.572631	9.623544	37.375755	9.279316	-22.029177	
8.8700	-41.015729	-10.916578	10.301839	-199.563383	821.058286	-10.936850	8.935304	-45.000000	31.716734	-45.000000	-45.000000	2422.749324	426.832432	27.357341	92.663655	1453.212607	37.147373	18.084425	7.125000	15.534198	38.772139	-34.570676	-45.000000	-45.000000	801.571700	-2980.856294	142.473750	151.053086	9.683660	37.400979	9.069176	-21.934342	
8.8800	-40.949140	-10.827336	10.373976	-200.152016	821.289648	-10.769943	8.868393	-45.000000	31.678591	-45.000000	-45.000000	2422.705925	426.844697	27.369158	92.632941	1453.203168	37.038610	18.037783	7.101028	15.442838	38.725024	-34.490606	-45.000000	-45.000000	801.564874	-2980.885993	142.572843	150.656835	9.731953	37.422309	8.938112	-21.875450	
8.8900	-40.875601	-10.757949	10.438586	-200.611734	821.488966	-10.591770	8.865929	-45.000000	31.672565	-45.000000	-45.000000	2422.678211	426.861947	27.377842	92.610148	1453.187334	36.908570	18.002350	7.084681	15.398605	38.683563	-34.410238	-45.000000	-45.000000	801.549520	-2980.929979	142.654551	150.384257	9.764966	37.436691	8.825626	-21.822356	
8.9000	-40.803436	-10.690371	10.488680	-200.948915	821.663567	-10.406366	8.907123	-45.000000	31.685875	-45.000000	-45.000000	2422.645722	426.865579	27.405105	92.595144	1453.158326	36.769212	18.001205	7.074618	15.398027	38.675831	-34.336204	-45.000000	-45.000000	801.540648	-2980.960876	142.698961	150.171118	9.799596	37.459285	8.774661	-21.798815	
8.9100	-40.737645	-10.623200	10.518155	-201.177175	821.823961	-10.219343	8.926827	-45.000000	31.699458	-45.000000	-45.000000	2422.643968	426.879405	27.426135	92.589190	1453.135762	36.632574	17.983588	7.070158	15.379679	38.644980	-34.270318	-45.000000	-45.000000	801.517403	-2980.984507	142.739992	150.000702	9.829513	37.485295	8.671512	-21.749255	
8.9200	-40.680123	-10.559094	10.542361	-201.310123	821.980959	-10.035963	8.957381	-45.000000	31.719552	-45.000000	-45.000000	2422.632686	426.878141	27.459013	92.585898	1453.106910	36.511863	17.993065	7.067456	15.381802	38.642848	-34.219444	-45.000000	-45.000000	801.508080	-2980.992917	142.754959	149.854368	9.864442	37.531657	8.613941	-21.721928	
8.9300	-40.630775	-10.499927	10.562694	-201.361079	822.145111	-9.860484	8.976153	-45.000000	31.733057	-45.000000	-45.000000	2422.639651	426.883878	27.476513	92.583298	1453.084177	36.415033	17.980653	7.063630	15.372486	38.619942	-34.183160	-45.000000	-45.000000	801.492197	-2980.995556	142.773109	149.755711	9.897189	37.589677	8.505051	-21.671108	
8.9400	-40.586133	-10.452878	10.595990	-201.343572	822.326240	-9.695660	8.995865	-45.000000	31.751994	-45.000000	-45.000000	2422.625948	426.879653	27.497765	92.570904	1453.055869	36.350501	17.996218	7.058807	15.374542	38.627861	-34.166379	-45.000000	-45.000000	801.496610	-2980.994436	142.773742	149.681803	9.932566	37.676776	8.447354	-21.644098	
8.9500	-40.546294	-10.406629	10.621461	-201.270739	822.532874	-9.542914	9.012672	-45.000000	31.763229	-45.000000	-45.000000	2422.627340	426.894260	27.511772	92.556315	1453.046145	36.319682	17.986403	7.047206	15.371101	38.613585	-34.162256	-45.000000	-45.000000	801.491656	-2980.993112	142.775494	149.650330	9.958844	37.782918	8.335598	-21.593024	
8.9600	-40.509345	-10.379155	10.655901	-201.155268	822.772154	-9.402457	9.024483	-45.000000	31.784835	-45.000000	-45.000000	2422.609115	426.905998	27.535277	92.527761	1453.033942	36.326875	18.006614	7.034962	15.373898	38.629241	-34.171893	-45.000000	-45.000000	801.507520	-2980.995494	142.765281	149.636141	9.987423	37.925152	8.280818	-21.569623	
8.9700	-40.479880	-10.345824	10.671951	-201.008561	823.049600	-9.273828	9.040751	-45.000000	31.796421	-45.000000	-44.999999	2422.604930	426.931087	27.558727	92.496227	1453.035190	36.369847	17.999720	7.015635	15.375293	38.624339	-34.190452	-45.000000	-45.000000	801.518152	-2980.987035	142.755978	149.654264	10.019321	38.090607	8.175219	-21.530634	
8.9800	-40.454064	-10.326665	10.690414	-200.840385	823.369289	-9.156376	9.049711	-45.000000	31.820498	-45.000000	-44.999999	2422.582442	426.951727	27.592110	92.449984	1453.035949	36.450029	18.023223	6.997980	15.381172	38.645720	-34.215341	-45.000000	-45.000000	801.551088	-2980.972653	142.735820	149.677367	10.061985	38.295000	8.126588	-21.523231	
8.9900	-40.434373	-10.293913	10.680943	-200.658537	823.733823	-9.049654	9.066956	-45.000000	31.838239	-45.000000	-44.999998	2422.581900	426.986607	27.625383	92.404778	1453.055275	36.562298	18.013069	6.974152	15.385662	38.638639	-34.247070	-45.000000	-45.000000	801.576581	-2980.946109	142.718573	149.722758	10.112171	38.523466	8.012679	-21.497434	
9.0000	-40.412135	-10.273520	10.672996	-200.468606	824.144727	-8.953565	9.073396	-45.000000	31.877510	-45.000000	-44.999996	2422.563694	427.016909	27.667736	92.344846	1453.074589	36.706251	18.039911	6.955091	15.393987	38.660512	-34.280250	-45.000000	-45.000000	801.620139	-2980.914121	142.689846	149.755963	10.177070	38.794687	7.966615	-21.509205	
9.0100	-40.390343	-10.244299	10.650999	-200.274023	824.602768	-8.868454	9.085977	-45.000000	31.913452	-45.000000	-44.999993	2422.559950	427.059856	27.702486	92.282055	1453.112633	36.877157	18.042092	6.931173	15.400008	38.662010	-34.319834	-45.000000	-45.000000	801.653889	-2980.872716	142.667252	149.798173	10.248207	39.096797	7.868607	-21.507187	
9.0200	-40.365865	-10.218295	10.626791	-200.076376	825.107845	-8.795288	9.095225	-45.000000	31.964999	-45.000000	-44.999987	2422.539845	427.093396	27.748720	92.200041	1453.153721	37.072691	18.067995	6.907012	15.406973	38.681138	-34.369384	-45.000000	-45.000000	801.705521	-2980.828923	142.632974	149.823107	10.329726	39.440612	7.814394	-21.530294	
9.0300	-40.343613	-10.187368	10.588417	-199.875620	825.660166	-8.735509	9.113670	-45.000000	32.008571	-45.000000	-44.999977	2422.540142	427.143739	27.786904	92.110002	1453.210342	37.288217	18.064341	6.879411	15.413041	38.676907	-34.422561	-45.000000	-45.000000	801.743874	-2980.774338	142.608304	149.852636	10.412663	39.810538	7.695088	-21.531683	
9.0400	-40.322664	-10.158648	10.543872	-199.670608	826.260114	-8.690800	9.133031	-45.000000	32.063120	-45.000000	-44.999959	2422.524623	427.185914	27.842380	91.995631	1453.260670	37.522770	18.075177	6.848861	15.417510	38.683485	-34.488571	-45.000000	-45.000000	801.800819	-2980.719756	142.573071	149.865263	10.497401	40.215122	7.607720	-21.548387	
9.0500	-40.303792	-10.134817	10.490801	-199.459242	826.909457	-8.662766	9.157590	-45.000000	32.113406	-45.000000	-44.999927	2422.527101	427.249897	27.890168	91.867983	1453.320903	37.775893	18.068728	6.819129	15.423544	38.676935	-34.546793	-45.000000	-45.000000	801.843103	-2980.648511	142.547795	149.880714	10.583920	40.642382	7.474126	-21.550245	
9.0600	-40.287668	-10.105625	10.424684	-199.238836	827.611228	-8.652620	9.189389	-45.000000	32.176336	-45.000000	-44.999869	2422.511522	427.302606	27.962253	91.713829	1453.374821	38.048582	18.068823	6.781025	15.421251	38.670447	-34.622927	-45.000000	-45.000000	801.908789	-2980.580637	142.508396	149.891391	10.669768	41.096621	7.360702	-21.559232	
